<mxfile host="app.diagrams.net" agent="Mozilla/5.0 (Windows NT 10.0; Win64; x64) AppleWebKit/537.36 (KHTML, like Gecko) Chrome/141.0.0.0 Safari/537.36" version="28.2.5">
  <diagram name="หน้า-1" id="2Q_UWFTMn2g6C8W1FU0C">
    <mxGraphModel grid="1" page="1" gridSize="10" guides="1" tooltips="1" connect="1" arrows="1" fold="1" pageScale="1" pageWidth="827" pageHeight="1169" math="0" shadow="0">
      <root>
        <mxCell id="0" />
        <mxCell id="1" parent="0" />
        <mxCell id="89SsRkWXvjaT30RCw-r3-126" value="เริ่มต้น (main)" style="ellipse;whiteSpace=wrap;html=1;" vertex="1" parent="1">
          <mxGeometry x="780" y="740" width="100" height="50" as="geometry" />
        </mxCell>
        <mxCell id="89SsRkWXvjaT30RCw-r3-290" style="edgeStyle=orthogonalEdgeStyle;rounded=0;orthogonalLoop=1;jettySize=auto;html=1;" edge="1" parent="1" source="89SsRkWXvjaT30RCw-r3-127" target="89SsRkWXvjaT30RCw-r3-282">
          <mxGeometry relative="1" as="geometry" />
        </mxCell>
        <mxCell id="89SsRkWXvjaT30RCw-r3-127" value="กำหนดตัวแปร: library[100], bookCount = 0, option, searchTitle" style="whiteSpace=wrap;html=1;shape=process;" vertex="1" parent="1">
          <mxGeometry x="730" y="820" width="200" height="60" as="geometry" />
        </mxCell>
        <mxCell id="89SsRkWXvjaT30RCw-r3-130" value="scanf(&quot;%d&quot;, &amp;option) != 1" style="rhombus;whiteSpace=wrap;html=1;" vertex="1" parent="1">
          <mxGeometry x="745" y="1040" width="170" height="70" as="geometry" />
        </mxCell>
        <mxCell id="89SsRkWXvjaT30RCw-r3-131" value="แสดง: &quot;Invalid option...&quot;" style="shape=parallelogram;perimeter=parallelogramPerimeter;whiteSpace=wrap;html=1;" vertex="1" parent="1">
          <mxGeometry x="940" y="1045" width="150" height="60" as="geometry" />
        </mxCell>
        <mxCell id="89SsRkWXvjaT30RCw-r3-132" value="เคลียร์ Input Buffer" style="whiteSpace=wrap;html=1;shape=process;" vertex="1" parent="1">
          <mxGeometry x="940" y="1135" width="150" height="40" as="geometry" />
        </mxCell>
        <mxCell id="89SsRkWXvjaT30RCw-r3-293" style="edgeStyle=orthogonalEdgeStyle;rounded=0;orthogonalLoop=1;jettySize=auto;html=1;entryX=0.5;entryY=0;entryDx=0;entryDy=0;" edge="1" parent="1" source="89SsRkWXvjaT30RCw-r3-133" target="89SsRkWXvjaT30RCw-r3-265">
          <mxGeometry relative="1" as="geometry" />
        </mxCell>
        <mxCell id="89SsRkWXvjaT30RCw-r3-133" value="เคลียร์ Input Buffer" style="whiteSpace=wrap;html=1;shape=process;" vertex="1" parent="1">
          <mxGeometry x="755" y="1150" width="150" height="40" as="geometry" />
        </mxCell>
        <mxCell id="89SsRkWXvjaT30RCw-r3-136" value="แสดง: &quot;Enter Title...&quot;" style="shape=parallelogram;perimeter=parallelogramPerimeter;whiteSpace=wrap;html=1;" vertex="1" parent="1">
          <mxGeometry x="587" y="1340" width="120" height="40" as="geometry" />
        </mxCell>
        <mxCell id="89SsRkWXvjaT30RCw-r3-137" value="รับค่า searchTitle" style="shape=parallelogram;perimeter=parallelogramPerimeter;whiteSpace=wrap;html=1;" vertex="1" parent="1">
          <mxGeometry x="587" y="1400" width="120" height="40" as="geometry" />
        </mxCell>
        <mxCell id="89SsRkWXvjaT30RCw-r3-262" style="edgeStyle=orthogonalEdgeStyle;rounded=0;orthogonalLoop=1;jettySize=auto;html=1;entryX=1;entryY=0;entryDx=0;entryDy=0;" edge="1" parent="1" source="89SsRkWXvjaT30RCw-r3-140" target="89SsRkWXvjaT30RCw-r3-250">
          <mxGeometry relative="1" as="geometry">
            <Array as="points">
              <mxPoint x="980" y="1544" />
            </Array>
          </mxGeometry>
        </mxCell>
        <mxCell id="89SsRkWXvjaT30RCw-r3-140" value="แสดง: &quot;Exiting...&quot;" style="shape=parallelogram;perimeter=parallelogramPerimeter;whiteSpace=wrap;html=1;" vertex="1" parent="1">
          <mxGeometry x="915" y="1350" width="120" height="60" as="geometry" />
        </mxCell>
        <mxCell id="89SsRkWXvjaT30RCw-r3-263" style="edgeStyle=orthogonalEdgeStyle;rounded=0;orthogonalLoop=1;jettySize=auto;html=1;entryX=1;entryY=0.5;entryDx=0;entryDy=0;" edge="1" parent="1" source="89SsRkWXvjaT30RCw-r3-141" target="89SsRkWXvjaT30RCw-r3-250">
          <mxGeometry relative="1" as="geometry">
            <Array as="points">
              <mxPoint x="1130" y="1555" />
            </Array>
          </mxGeometry>
        </mxCell>
        <mxCell id="89SsRkWXvjaT30RCw-r3-141" value="แสดง: &quot;Invalid option...&quot;" style="shape=parallelogram;perimeter=parallelogramPerimeter;whiteSpace=wrap;html=1;" vertex="1" parent="1">
          <mxGeometry x="1070" y="1350" width="120" height="60" as="geometry" />
        </mxCell>
        <mxCell id="89SsRkWXvjaT30RCw-r3-143" value="option != 4" style="rhombus;whiteSpace=wrap;html=1;" vertex="1" parent="1">
          <mxGeometry x="780" y="1610" width="100" height="70" as="geometry" />
        </mxCell>
        <mxCell id="89SsRkWXvjaT30RCw-r3-144" value="จบ (main)" style="ellipse;whiteSpace=wrap;html=1;" vertex="1" parent="1">
          <mxGeometry x="780" y="1729" width="100" height="50" as="geometry" />
        </mxCell>
        <mxCell id="89SsRkWXvjaT30RCw-r3-145" value="" style="endArrow=classic;html=1;" edge="1" parent="1" source="89SsRkWXvjaT30RCw-r3-126" target="89SsRkWXvjaT30RCw-r3-127">
          <mxGeometry width="50" height="50" relative="1" as="geometry">
            <mxPoint x="830" y="790" as="sourcePoint" />
            <mxPoint x="830" y="820" as="targetPoint" />
          </mxGeometry>
        </mxCell>
        <mxCell id="89SsRkWXvjaT30RCw-r3-149" value="จริง" style="endArrow=classic;html=1;exitX=1;exitY=0.5;" edge="1" parent="1" source="89SsRkWXvjaT30RCw-r3-130" target="89SsRkWXvjaT30RCw-r3-131">
          <mxGeometry width="50" height="50" relative="1" as="geometry">
            <mxPoint x="915" y="1075" as="sourcePoint" />
            <mxPoint x="940" y="1075" as="targetPoint" />
          </mxGeometry>
        </mxCell>
        <mxCell id="89SsRkWXvjaT30RCw-r3-150" value="" style="endArrow=classic;html=1;" edge="1" parent="1" source="89SsRkWXvjaT30RCw-r3-131" target="89SsRkWXvjaT30RCw-r3-132">
          <mxGeometry width="50" height="50" relative="1" as="geometry">
            <mxPoint x="1015" y="1105" as="sourcePoint" />
            <mxPoint x="1015" y="1135" as="targetPoint" />
          </mxGeometry>
        </mxCell>
        <mxCell id="89SsRkWXvjaT30RCw-r3-151" value="" style="endArrow=classic;html=1;entryX=1;entryY=0.5;entryDx=0;entryDy=0;" edge="1" parent="1" source="89SsRkWXvjaT30RCw-r3-132" target="89SsRkWXvjaT30RCw-r3-282">
          <mxGeometry width="50" height="50" relative="1" as="geometry">
            <mxPoint x="1015" y="1175" as="sourcePoint" />
            <mxPoint x="905" y="930" as="targetPoint" />
            <Array as="points">
              <mxPoint x="1015" y="1200" />
              <mxPoint x="1150" y="1200" />
              <mxPoint x="1150" y="905" />
            </Array>
          </mxGeometry>
        </mxCell>
        <mxCell id="89SsRkWXvjaT30RCw-r3-152" value="เท็จ" style="endArrow=classic;html=1;exitX=0.5;exitY=1;" edge="1" parent="1" source="89SsRkWXvjaT30RCw-r3-130" target="89SsRkWXvjaT30RCw-r3-133">
          <mxGeometry width="50" height="50" relative="1" as="geometry">
            <mxPoint x="830" y="1110" as="sourcePoint" />
            <mxPoint x="830" y="1150" as="targetPoint" />
          </mxGeometry>
        </mxCell>
        <mxCell id="89SsRkWXvjaT30RCw-r3-160" value="" style="endArrow=classic;html=1;" edge="1" parent="1" source="89SsRkWXvjaT30RCw-r3-136" target="89SsRkWXvjaT30RCw-r3-137">
          <mxGeometry width="50" height="50" relative="1" as="geometry">
            <mxPoint x="647" y="1380" as="sourcePoint" />
            <mxPoint x="647" y="1390" as="targetPoint" />
          </mxGeometry>
        </mxCell>
        <mxCell id="89SsRkWXvjaT30RCw-r3-168" value="เท็จ (จบ)" style="endArrow=classic;html=1;" edge="1" parent="1" source="89SsRkWXvjaT30RCw-r3-143" target="89SsRkWXvjaT30RCw-r3-144">
          <mxGeometry width="50" height="50" relative="1" as="geometry">
            <mxPoint x="830" y="1640" as="sourcePoint" />
            <mxPoint x="830" y="1680" as="targetPoint" />
          </mxGeometry>
        </mxCell>
        <mxCell id="89SsRkWXvjaT30RCw-r3-169" value="Function: addBook" style="shape=parallelogram;perimeter=parallelogramPerimeter;whiteSpace=wrap;html=1;" vertex="1" parent="1">
          <mxGeometry x="450" y="1770" width="180" height="40" as="geometry" />
        </mxCell>
        <mxCell id="89SsRkWXvjaT30RCw-r3-170" value="*count &gt;= MAX_BOOKS" style="rhombus;whiteSpace=wrap;html=1;" vertex="1" parent="1">
          <mxGeometry x="465" y="1840" width="150" height="70" as="geometry" />
        </mxCell>
        <mxCell id="89SsRkWXvjaT30RCw-r3-303" style="edgeStyle=orthogonalEdgeStyle;rounded=0;orthogonalLoop=1;jettySize=auto;html=1;entryX=0;entryY=0.5;entryDx=0;entryDy=0;" edge="1" parent="1" source="89SsRkWXvjaT30RCw-r3-171" target="89SsRkWXvjaT30RCw-r3-298">
          <mxGeometry relative="1" as="geometry">
            <Array as="points">
              <mxPoint x="230" y="2685" />
            </Array>
          </mxGeometry>
        </mxCell>
        <mxCell id="89SsRkWXvjaT30RCw-r3-171" value="แสดง: &quot;The library is full...&quot;" style="shape=parallelogram;perimeter=parallelogramPerimeter;whiteSpace=wrap;html=1;" vertex="1" parent="1">
          <mxGeometry x="140" y="1850" width="150" height="50" as="geometry" />
        </mxCell>
        <mxCell id="89SsRkWXvjaT30RCw-r3-172" value="แสดง: &quot;Enter Book ID:&quot;" style="shape=parallelogram;perimeter=parallelogramPerimeter;whiteSpace=wrap;html=1;" vertex="1" parent="1">
          <mxGeometry x="465" y="1940" width="150" height="40" as="geometry" />
        </mxCell>
        <mxCell id="89SsRkWXvjaT30RCw-r3-173" value="scanf ID != 1" style="rhombus;whiteSpace=wrap;html=1;" vertex="1" parent="1">
          <mxGeometry x="465" y="2010" width="150" height="70" as="geometry" />
        </mxCell>
        <mxCell id="89SsRkWXvjaT30RCw-r3-174" value="แสดง: &quot;Invalid Book ID...&quot;" style="shape=parallelogram;perimeter=parallelogramPerimeter;whiteSpace=wrap;html=1;" vertex="1" parent="1">
          <mxGeometry x="280" y="2020" width="150" height="50" as="geometry" />
        </mxCell>
        <mxCell id="89SsRkWXvjaT30RCw-r3-301" style="edgeStyle=orthogonalEdgeStyle;rounded=0;orthogonalLoop=1;jettySize=auto;html=1;entryX=0;entryY=0;entryDx=0;entryDy=0;" edge="1" parent="1" source="89SsRkWXvjaT30RCw-r3-175" target="89SsRkWXvjaT30RCw-r3-298">
          <mxGeometry relative="1" as="geometry">
            <Array as="points">
              <mxPoint x="355" y="2674" />
            </Array>
          </mxGeometry>
        </mxCell>
        <mxCell id="89SsRkWXvjaT30RCw-r3-175" value="เคลียร์ Input Buffer" style="whiteSpace=wrap;html=1;shape=process;" vertex="1" parent="1">
          <mxGeometry x="280" y="2120" width="150" height="40" as="geometry" />
        </mxCell>
        <mxCell id="89SsRkWXvjaT30RCw-r3-176" value="เคลียร์ Input Buffer (while loop)" style="whiteSpace=wrap;html=1;shape=process;" vertex="1" parent="1">
          <mxGeometry x="465" y="2110" width="150" height="40" as="geometry" />
        </mxCell>
        <mxCell id="89SsRkWXvjaT30RCw-r3-177" value="รับค่า Title และลบ \n" style="shape=parallelogram;perimeter=parallelogramPerimeter;whiteSpace=wrap;html=1;" vertex="1" parent="1">
          <mxGeometry x="465" y="2180" width="150" height="50" as="geometry" />
        </mxCell>
        <mxCell id="89SsRkWXvjaT30RCw-r3-178" value="รับค่า Author และลบ \n" style="shape=parallelogram;perimeter=parallelogramPerimeter;whiteSpace=wrap;html=1;" vertex="1" parent="1">
          <mxGeometry x="465" y="2260" width="150" height="50" as="geometry" />
        </mxCell>
        <mxCell id="89SsRkWXvjaT30RCw-r3-179" value="แสดง: &quot;Enter Year:&quot;" style="shape=parallelogram;perimeter=parallelogramPerimeter;whiteSpace=wrap;html=1;" vertex="1" parent="1">
          <mxGeometry x="465" y="2340" width="150" height="40" as="geometry" />
        </mxCell>
        <mxCell id="89SsRkWXvjaT30RCw-r3-180" value="scanf Year != 1" style="rhombus;whiteSpace=wrap;html=1;" vertex="1" parent="1">
          <mxGeometry x="465" y="2410" width="150" height="70" as="geometry" />
        </mxCell>
        <mxCell id="89SsRkWXvjaT30RCw-r3-181" value="แสดง: &quot;Invalid Year input...&quot;" style="shape=parallelogram;perimeter=parallelogramPerimeter;whiteSpace=wrap;html=1;" vertex="1" parent="1">
          <mxGeometry x="650" y="2420" width="150" height="50" as="geometry" />
        </mxCell>
        <mxCell id="89SsRkWXvjaT30RCw-r3-300" style="edgeStyle=orthogonalEdgeStyle;rounded=0;orthogonalLoop=1;jettySize=auto;html=1;entryX=1;entryY=0.5;entryDx=0;entryDy=0;" edge="1" parent="1" source="89SsRkWXvjaT30RCw-r3-182" target="89SsRkWXvjaT30RCw-r3-298">
          <mxGeometry relative="1" as="geometry">
            <Array as="points">
              <mxPoint x="720" y="2685" />
            </Array>
          </mxGeometry>
        </mxCell>
        <mxCell id="89SsRkWXvjaT30RCw-r3-182" value="เคลียร์ Input Buffer" style="whiteSpace=wrap;html=1;shape=process;" vertex="1" parent="1">
          <mxGeometry x="650" y="2550" width="150" height="40" as="geometry" />
        </mxCell>
        <mxCell id="89SsRkWXvjaT30RCw-r3-183" value="*count = *count + 1" style="whiteSpace=wrap;html=1;shape=process;" vertex="1" parent="1">
          <mxGeometry x="465" y="2530" width="150" height="40" as="geometry" />
        </mxCell>
        <mxCell id="89SsRkWXvjaT30RCw-r3-184" value="แสดง: &quot;Book added successfully!&quot;" style="shape=parallelogram;perimeter=parallelogramPerimeter;whiteSpace=wrap;html=1;" vertex="1" parent="1">
          <mxGeometry x="465" y="2600" width="150" height="50" as="geometry" />
        </mxCell>
        <mxCell id="89SsRkWXvjaT30RCw-r3-185" value="จบ (addBook)" style="ellipse;whiteSpace=wrap;html=1;" vertex="1" parent="1">
          <mxGeometry x="490" y="2730" width="100" height="40" as="geometry" />
        </mxCell>
        <mxCell id="89SsRkWXvjaT30RCw-r3-186" value="" style="endArrow=classic;html=1;" edge="1" parent="1" source="89SsRkWXvjaT30RCw-r3-169" target="89SsRkWXvjaT30RCw-r3-170">
          <mxGeometry width="50" height="50" relative="1" as="geometry">
            <mxPoint x="540" y="1810" as="sourcePoint" />
            <mxPoint x="540" y="1840" as="targetPoint" />
          </mxGeometry>
        </mxCell>
        <mxCell id="89SsRkWXvjaT30RCw-r3-187" value="จริง" style="endArrow=classic;html=1;exitX=0;exitY=0.5;exitDx=0;exitDy=0;" edge="1" parent="1" source="89SsRkWXvjaT30RCw-r3-170" target="89SsRkWXvjaT30RCw-r3-171">
          <mxGeometry width="50" height="50" relative="1" as="geometry">
            <mxPoint x="615" y="1875" as="sourcePoint" />
            <mxPoint x="650" y="1875" as="targetPoint" />
          </mxGeometry>
        </mxCell>
        <mxCell id="89SsRkWXvjaT30RCw-r3-189" value="เท็จ" style="endArrow=classic;html=1;exitX=0.5;exitY=1;" edge="1" parent="1" source="89SsRkWXvjaT30RCw-r3-170" target="89SsRkWXvjaT30RCw-r3-172">
          <mxGeometry width="50" height="50" relative="1" as="geometry">
            <mxPoint x="540" y="1910" as="sourcePoint" />
            <mxPoint x="540" y="1940" as="targetPoint" />
          </mxGeometry>
        </mxCell>
        <mxCell id="89SsRkWXvjaT30RCw-r3-190" value="" style="endArrow=classic;html=1;" edge="1" parent="1" source="89SsRkWXvjaT30RCw-r3-172" target="89SsRkWXvjaT30RCw-r3-173">
          <mxGeometry width="50" height="50" relative="1" as="geometry">
            <mxPoint x="540" y="1980" as="sourcePoint" />
            <mxPoint x="540" y="2010" as="targetPoint" />
          </mxGeometry>
        </mxCell>
        <mxCell id="89SsRkWXvjaT30RCw-r3-191" value="จริง (Error)" style="endArrow=classic;html=1;exitX=0;exitY=0.5;exitDx=0;exitDy=0;" edge="1" parent="1" source="89SsRkWXvjaT30RCw-r3-173" target="89SsRkWXvjaT30RCw-r3-174">
          <mxGeometry width="50" height="50" relative="1" as="geometry">
            <mxPoint x="615" y="2045" as="sourcePoint" />
            <mxPoint x="650" y="2045" as="targetPoint" />
          </mxGeometry>
        </mxCell>
        <mxCell id="89SsRkWXvjaT30RCw-r3-192" value="" style="endArrow=classic;html=1;" edge="1" parent="1" source="89SsRkWXvjaT30RCw-r3-174" target="89SsRkWXvjaT30RCw-r3-175">
          <mxGeometry width="50" height="50" relative="1" as="geometry">
            <mxPoint x="355" y="2080" as="sourcePoint" />
            <mxPoint x="355" y="2120" as="targetPoint" />
          </mxGeometry>
        </mxCell>
        <mxCell id="89SsRkWXvjaT30RCw-r3-194" value="เท็จ" style="endArrow=classic;html=1;exitX=0.5;exitY=1;" edge="1" parent="1" source="89SsRkWXvjaT30RCw-r3-173" target="89SsRkWXvjaT30RCw-r3-176">
          <mxGeometry width="50" height="50" relative="1" as="geometry">
            <mxPoint x="540" y="2080" as="sourcePoint" />
            <mxPoint x="540" y="2110" as="targetPoint" />
          </mxGeometry>
        </mxCell>
        <mxCell id="89SsRkWXvjaT30RCw-r3-195" value="" style="endArrow=classic;html=1;exitX=0.5;exitY=1;" edge="1" parent="1" source="89SsRkWXvjaT30RCw-r3-176" target="89SsRkWXvjaT30RCw-r3-177">
          <mxGeometry width="50" height="50" relative="1" as="geometry">
            <mxPoint x="540" y="2150" as="sourcePoint" />
            <mxPoint x="540" y="2180" as="targetPoint" />
          </mxGeometry>
        </mxCell>
        <mxCell id="89SsRkWXvjaT30RCw-r3-196" value="" style="endArrow=classic;html=1;exitX=0.5;exitY=1;" edge="1" parent="1" source="89SsRkWXvjaT30RCw-r3-177" target="89SsRkWXvjaT30RCw-r3-178">
          <mxGeometry width="50" height="50" relative="1" as="geometry">
            <mxPoint x="540" y="2230" as="sourcePoint" />
            <mxPoint x="540" y="2260" as="targetPoint" />
          </mxGeometry>
        </mxCell>
        <mxCell id="89SsRkWXvjaT30RCw-r3-197" value="" style="endArrow=classic;html=1;exitX=0.5;exitY=1;" edge="1" parent="1" source="89SsRkWXvjaT30RCw-r3-178" target="89SsRkWXvjaT30RCw-r3-179">
          <mxGeometry width="50" height="50" relative="1" as="geometry">
            <mxPoint x="540" y="2310" as="sourcePoint" />
            <mxPoint x="540" y="2340" as="targetPoint" />
          </mxGeometry>
        </mxCell>
        <mxCell id="89SsRkWXvjaT30RCw-r3-198" value="" style="endArrow=classic;html=1;exitX=0.5;exitY=1;" edge="1" parent="1" source="89SsRkWXvjaT30RCw-r3-179" target="89SsRkWXvjaT30RCw-r3-180">
          <mxGeometry width="50" height="50" relative="1" as="geometry">
            <mxPoint x="540" y="2380" as="sourcePoint" />
            <mxPoint x="540" y="2410" as="targetPoint" />
          </mxGeometry>
        </mxCell>
        <mxCell id="89SsRkWXvjaT30RCw-r3-199" value="จริง (Error)" style="endArrow=classic;html=1;exitX=1;exitY=0.5;" edge="1" parent="1" source="89SsRkWXvjaT30RCw-r3-180" target="89SsRkWXvjaT30RCw-r3-181">
          <mxGeometry width="50" height="50" relative="1" as="geometry">
            <mxPoint x="615" y="2445" as="sourcePoint" />
            <mxPoint x="650" y="2445" as="targetPoint" />
          </mxGeometry>
        </mxCell>
        <mxCell id="89SsRkWXvjaT30RCw-r3-200" value="" style="endArrow=classic;html=1;" edge="1" parent="1" source="89SsRkWXvjaT30RCw-r3-181" target="89SsRkWXvjaT30RCw-r3-182">
          <mxGeometry width="50" height="50" relative="1" as="geometry">
            <mxPoint x="725" y="2470" as="sourcePoint" />
            <mxPoint x="725" y="2510" as="targetPoint" />
          </mxGeometry>
        </mxCell>
        <mxCell id="89SsRkWXvjaT30RCw-r3-202" value="เท็จ" style="endArrow=classic;html=1;exitX=0.5;exitY=1;" edge="1" parent="1" source="89SsRkWXvjaT30RCw-r3-180" target="89SsRkWXvjaT30RCw-r3-183">
          <mxGeometry width="50" height="50" relative="1" as="geometry">
            <mxPoint x="540" y="2480" as="sourcePoint" />
            <mxPoint x="540" y="2530" as="targetPoint" />
            <Array as="points">
              <mxPoint x="540" y="2505" />
            </Array>
          </mxGeometry>
        </mxCell>
        <mxCell id="89SsRkWXvjaT30RCw-r3-203" value="" style="endArrow=classic;html=1;" edge="1" parent="1" source="89SsRkWXvjaT30RCw-r3-183" target="89SsRkWXvjaT30RCw-r3-184">
          <mxGeometry width="50" height="50" relative="1" as="geometry">
            <mxPoint x="540" y="2570" as="sourcePoint" />
            <mxPoint x="540" y="2600" as="targetPoint" />
          </mxGeometry>
        </mxCell>
        <mxCell id="89SsRkWXvjaT30RCw-r3-204" value="" style="endArrow=classic;html=1;" edge="1" parent="1" source="89SsRkWXvjaT30RCw-r3-298" target="89SsRkWXvjaT30RCw-r3-185">
          <mxGeometry width="50" height="50" relative="1" as="geometry">
            <mxPoint x="540" y="2650" as="sourcePoint" />
            <mxPoint x="540" y="2680" as="targetPoint" />
          </mxGeometry>
        </mxCell>
        <mxCell id="89SsRkWXvjaT30RCw-r3-205" value="Function: searchBook" style="shape=parallelogram;perimeter=parallelogramPerimeter;whiteSpace=wrap;html=1;" vertex="1" parent="1">
          <mxGeometry x="900" y="1770" width="180" height="40" as="geometry" />
        </mxCell>
        <mxCell id="89SsRkWXvjaT30RCw-r3-206" value="found = 0, ลบ \n ออกจาก title" style="whiteSpace=wrap;html=1;shape=process;" vertex="1" parent="1">
          <mxGeometry x="915" y="1840" width="150" height="40" as="geometry" />
        </mxCell>
        <mxCell id="89SsRkWXvjaT30RCw-r3-207" value="i = 0" style="whiteSpace=wrap;html=1;shape=process;" vertex="1" parent="1">
          <mxGeometry x="940" y="1910" width="100" height="40" as="geometry" />
        </mxCell>
        <mxCell id="89SsRkWXvjaT30RCw-r3-208" value="i &lt; count" style="rhombus;whiteSpace=wrap;html=1;" vertex="1" parent="1">
          <mxGeometry x="940" y="1980" width="100" height="70" as="geometry" />
        </mxCell>
        <mxCell id="89SsRkWXvjaT30RCw-r3-307" style="edgeStyle=orthogonalEdgeStyle;rounded=0;orthogonalLoop=1;jettySize=auto;html=1;entryX=0.5;entryY=0;entryDx=0;entryDy=0;" edge="1" parent="1" source="89SsRkWXvjaT30RCw-r3-209" target="89SsRkWXvjaT30RCw-r3-305">
          <mxGeometry relative="1" as="geometry" />
        </mxCell>
        <mxCell id="89SsRkWXvjaT30RCw-r3-209" value="Title ตรงกัน (strcmp == 0)" style="rhombus;whiteSpace=wrap;html=1;" vertex="1" parent="1">
          <mxGeometry x="900" y="2090" width="180" height="70" as="geometry" />
        </mxCell>
        <mxCell id="89SsRkWXvjaT30RCw-r3-210" value="แสดงข้อมูลหนังสือ" style="shape=parallelogram;perimeter=parallelogramPerimeter;whiteSpace=wrap;html=1;" vertex="1" parent="1">
          <mxGeometry x="760" y="2190" width="120" height="50" as="geometry" />
        </mxCell>
        <mxCell id="89SsRkWXvjaT30RCw-r3-308" style="edgeStyle=orthogonalEdgeStyle;rounded=0;orthogonalLoop=1;jettySize=auto;html=1;entryX=0;entryY=0.5;entryDx=0;entryDy=0;" edge="1" parent="1" source="89SsRkWXvjaT30RCw-r3-211" target="89SsRkWXvjaT30RCw-r3-305">
          <mxGeometry relative="1" as="geometry">
            <Array as="points">
              <mxPoint x="820" y="2335" />
            </Array>
          </mxGeometry>
        </mxCell>
        <mxCell id="89SsRkWXvjaT30RCw-r3-211" value="found = 1" style="whiteSpace=wrap;html=1;shape=process;" vertex="1" parent="1">
          <mxGeometry x="760" y="2270" width="120" height="40" as="geometry" />
        </mxCell>
        <mxCell id="89SsRkWXvjaT30RCw-r3-212" value="i = i + 1" style="whiteSpace=wrap;html=1;shape=process;" vertex="1" parent="1">
          <mxGeometry x="1110" y="2105" width="100" height="40" as="geometry" />
        </mxCell>
        <mxCell id="89SsRkWXvjaT30RCw-r3-213" value="!found (ไม่พบ)" style="rhombus;whiteSpace=wrap;html=1;" vertex="1" parent="1">
          <mxGeometry x="940" y="2370" width="100" height="70" as="geometry" />
        </mxCell>
        <mxCell id="89SsRkWXvjaT30RCw-r3-214" value="แสดง: &quot;Book not found.&quot;" style="shape=parallelogram;perimeter=parallelogramPerimeter;whiteSpace=wrap;html=1;" vertex="1" parent="1">
          <mxGeometry x="810" y="2450" width="130" height="50" as="geometry" />
        </mxCell>
        <mxCell id="89SsRkWXvjaT30RCw-r3-215" value="จบ (searchBook)" style="ellipse;whiteSpace=wrap;html=1;" vertex="1" parent="1">
          <mxGeometry x="945" y="2550" width="90" height="40" as="geometry" />
        </mxCell>
        <mxCell id="89SsRkWXvjaT30RCw-r3-216" value="" style="endArrow=classic;html=1;" edge="1" parent="1" source="89SsRkWXvjaT30RCw-r3-205" target="89SsRkWXvjaT30RCw-r3-206">
          <mxGeometry width="50" height="50" relative="1" as="geometry">
            <mxPoint x="990" y="1810" as="sourcePoint" />
            <mxPoint x="990" y="1840" as="targetPoint" />
          </mxGeometry>
        </mxCell>
        <mxCell id="89SsRkWXvjaT30RCw-r3-217" value="" style="endArrow=classic;html=1;" edge="1" parent="1" source="89SsRkWXvjaT30RCw-r3-206" target="89SsRkWXvjaT30RCw-r3-207">
          <mxGeometry width="50" height="50" relative="1" as="geometry">
            <mxPoint x="990" y="1880" as="sourcePoint" />
            <mxPoint x="990" y="1910" as="targetPoint" />
          </mxGeometry>
        </mxCell>
        <mxCell id="89SsRkWXvjaT30RCw-r3-218" value="" style="endArrow=classic;html=1;" edge="1" parent="1" source="89SsRkWXvjaT30RCw-r3-207" target="89SsRkWXvjaT30RCw-r3-208">
          <mxGeometry width="50" height="50" relative="1" as="geometry">
            <mxPoint x="990" y="1950" as="sourcePoint" />
            <mxPoint x="990" y="1980" as="targetPoint" />
          </mxGeometry>
        </mxCell>
        <mxCell id="89SsRkWXvjaT30RCw-r3-219" value="จริง (i &lt; count)" style="endArrow=classic;html=1;exitX=0.5;exitY=1;" edge="1" parent="1" source="89SsRkWXvjaT30RCw-r3-208" target="89SsRkWXvjaT30RCw-r3-209">
          <mxGeometry width="50" height="50" relative="1" as="geometry">
            <mxPoint x="990" y="2050" as="sourcePoint" />
            <mxPoint x="990" y="2090" as="targetPoint" />
          </mxGeometry>
        </mxCell>
        <mxCell id="89SsRkWXvjaT30RCw-r3-220" value="จริง" style="endArrow=classic;html=1;exitX=0;exitY=0.5;" edge="1" parent="1" source="89SsRkWXvjaT30RCw-r3-209" target="89SsRkWXvjaT30RCw-r3-210">
          <mxGeometry width="50" height="50" relative="1" as="geometry">
            <mxPoint x="900" y="2125" as="sourcePoint" />
            <mxPoint x="820" y="2190" as="targetPoint" />
            <Array as="points">
              <mxPoint x="820" y="2125" />
            </Array>
          </mxGeometry>
        </mxCell>
        <mxCell id="89SsRkWXvjaT30RCw-r3-221" value="" style="endArrow=classic;html=1;" edge="1" parent="1" source="89SsRkWXvjaT30RCw-r3-210" target="89SsRkWXvjaT30RCw-r3-211">
          <mxGeometry width="50" height="50" relative="1" as="geometry">
            <mxPoint x="820" y="2240" as="sourcePoint" />
            <mxPoint x="820" y="2270" as="targetPoint" />
          </mxGeometry>
        </mxCell>
        <mxCell id="89SsRkWXvjaT30RCw-r3-223" value="เท็จ" style="endArrow=classic;html=1;exitX=1;exitY=0.5;" edge="1" parent="1" source="89SsRkWXvjaT30RCw-r3-209" target="89SsRkWXvjaT30RCw-r3-212">
          <mxGeometry width="50" height="50" relative="1" as="geometry">
            <mxPoint x="1080" y="2125" as="sourcePoint" />
            <mxPoint x="1090" y="2190" as="targetPoint" />
            <Array as="points">
              <mxPoint x="1090" y="2125" />
            </Array>
          </mxGeometry>
        </mxCell>
        <mxCell id="89SsRkWXvjaT30RCw-r3-224" value="" style="endArrow=classic;html=1;exitX=0.5;exitY=0;entryX=1;entryY=0.5;entryDx=0;entryDy=0;" edge="1" parent="1" source="89SsRkWXvjaT30RCw-r3-212" target="89SsRkWXvjaT30RCw-r3-208">
          <mxGeometry width="50" height="50" relative="1" as="geometry">
            <mxPoint x="1090" y="2190" as="sourcePoint" />
            <mxPoint x="990" y="1980" as="targetPoint" />
            <Array as="points">
              <mxPoint x="1160" y="2060" />
              <mxPoint x="1160" y="2015" />
            </Array>
          </mxGeometry>
        </mxCell>
        <mxCell id="89SsRkWXvjaT30RCw-r3-226" value="จริง" style="endArrow=classic;html=1;exitX=0;exitY=0.5;" edge="1" parent="1" source="89SsRkWXvjaT30RCw-r3-213" target="89SsRkWXvjaT30RCw-r3-214">
          <mxGeometry width="50" height="50" relative="1" as="geometry">
            <mxPoint x="940" y="2405" as="sourcePoint" />
            <mxPoint x="865" y="2460" as="targetPoint" />
            <Array as="points">
              <mxPoint x="875" y="2405" />
            </Array>
          </mxGeometry>
        </mxCell>
        <mxCell id="89SsRkWXvjaT30RCw-r3-227" value="" style="endArrow=classic;html=1;exitX=0.5;exitY=1;" edge="1" parent="1" source="89SsRkWXvjaT30RCw-r3-214" target="89SsRkWXvjaT30RCw-r3-215">
          <mxGeometry width="50" height="50" relative="1" as="geometry">
            <mxPoint x="865" y="2510" as="sourcePoint" />
            <mxPoint x="990" y="2550" as="targetPoint" />
            <Array as="points">
              <mxPoint x="875" y="2570" />
            </Array>
          </mxGeometry>
        </mxCell>
        <mxCell id="89SsRkWXvjaT30RCw-r3-228" value="เท็จ" style="endArrow=classic;html=1;exitX=0.5;exitY=1;" edge="1" parent="1" source="89SsRkWXvjaT30RCw-r3-213" target="89SsRkWXvjaT30RCw-r3-215">
          <mxGeometry width="50" height="50" relative="1" as="geometry">
            <mxPoint x="990" y="2440" as="sourcePoint" />
            <mxPoint x="990" y="2550" as="targetPoint" />
          </mxGeometry>
        </mxCell>
        <mxCell id="89SsRkWXvjaT30RCw-r3-229" value="Function: displayBooks" style="shape=parallelogram;perimeter=parallelogramPerimeter;whiteSpace=wrap;html=1;" vertex="1" parent="1">
          <mxGeometry x="1250" y="1770" width="180" height="40" as="geometry" />
        </mxCell>
        <mxCell id="89SsRkWXvjaT30RCw-r3-230" value="count == 0" style="rhombus;whiteSpace=wrap;html=1;" vertex="1" parent="1">
          <mxGeometry x="1290" y="1840" width="100" height="70" as="geometry" />
        </mxCell>
        <mxCell id="89SsRkWXvjaT30RCw-r3-312" style="edgeStyle=orthogonalEdgeStyle;rounded=0;orthogonalLoop=1;jettySize=auto;html=1;entryX=1;entryY=0.5;entryDx=0;entryDy=0;" edge="1" parent="1" source="89SsRkWXvjaT30RCw-r3-231" target="89SsRkWXvjaT30RCw-r3-310">
          <mxGeometry relative="1" as="geometry">
            <Array as="points">
              <mxPoint x="1535" y="2445" />
            </Array>
          </mxGeometry>
        </mxCell>
        <mxCell id="89SsRkWXvjaT30RCw-r3-231" value="แสดง: &quot;The library is empty...&quot;" style="shape=parallelogram;perimeter=parallelogramPerimeter;whiteSpace=wrap;html=1;" vertex="1" parent="1">
          <mxGeometry x="1460" y="1850" width="150" height="50" as="geometry" />
        </mxCell>
        <mxCell id="89SsRkWXvjaT30RCw-r3-232" value="แสดง: Header" style="shape=parallelogram;perimeter=parallelogramPerimeter;whiteSpace=wrap;html=1;" vertex="1" parent="1">
          <mxGeometry x="1265" y="1940" width="150" height="40" as="geometry" />
        </mxCell>
        <mxCell id="89SsRkWXvjaT30RCw-r3-233" value="i = 0" style="whiteSpace=wrap;html=1;shape=process;" vertex="1" parent="1">
          <mxGeometry x="1290" y="2010" width="100" height="40" as="geometry" />
        </mxCell>
        <mxCell id="89SsRkWXvjaT30RCw-r3-234" value="i &lt; count" style="rhombus;whiteSpace=wrap;html=1;" vertex="1" parent="1">
          <mxGeometry x="1290" y="2080" width="100" height="70" as="geometry" />
        </mxCell>
        <mxCell id="89SsRkWXvjaT30RCw-r3-309" style="edgeStyle=orthogonalEdgeStyle;rounded=0;orthogonalLoop=1;jettySize=auto;html=1;entryX=0.5;entryY=0;entryDx=0;entryDy=0;" edge="1" parent="1" source="89SsRkWXvjaT30RCw-r3-235" target="89SsRkWXvjaT30RCw-r3-237">
          <mxGeometry relative="1" as="geometry" />
        </mxCell>
        <mxCell id="89SsRkWXvjaT30RCw-r3-235" value="แสดงข้อมูลหนังสือ books[i]" style="shape=parallelogram;perimeter=parallelogramPerimeter;whiteSpace=wrap;html=1;" vertex="1" parent="1">
          <mxGeometry x="1394" y="2225" width="130" height="50" as="geometry" />
        </mxCell>
        <mxCell id="89SsRkWXvjaT30RCw-r3-236" value="i = i + 1" style="whiteSpace=wrap;html=1;shape=process;" vertex="1" parent="1">
          <mxGeometry x="1195" y="2230" width="100" height="40" as="geometry" />
        </mxCell>
        <mxCell id="89SsRkWXvjaT30RCw-r3-311" value="" style="edgeStyle=orthogonalEdgeStyle;rounded=0;orthogonalLoop=1;jettySize=auto;html=1;" edge="1" parent="1" source="89SsRkWXvjaT30RCw-r3-237" target="89SsRkWXvjaT30RCw-r3-310">
          <mxGeometry relative="1" as="geometry" />
        </mxCell>
        <mxCell id="89SsRkWXvjaT30RCw-r3-237" value="แสดง: Footer" style="shape=parallelogram;perimeter=parallelogramPerimeter;whiteSpace=wrap;html=1;" vertex="1" parent="1">
          <mxGeometry x="1265" y="2350" width="150" height="40" as="geometry" />
        </mxCell>
        <mxCell id="89SsRkWXvjaT30RCw-r3-239" value="" style="endArrow=classic;html=1;" edge="1" parent="1" source="89SsRkWXvjaT30RCw-r3-229" target="89SsRkWXvjaT30RCw-r3-230">
          <mxGeometry width="50" height="50" relative="1" as="geometry">
            <mxPoint x="1340" y="1810" as="sourcePoint" />
            <mxPoint x="1340" y="1840" as="targetPoint" />
          </mxGeometry>
        </mxCell>
        <mxCell id="89SsRkWXvjaT30RCw-r3-240" value="จริง" style="endArrow=classic;html=1;exitX=1;exitY=0.5;" edge="1" parent="1" source="89SsRkWXvjaT30RCw-r3-230" target="89SsRkWXvjaT30RCw-r3-231">
          <mxGeometry width="50" height="50" relative="1" as="geometry">
            <mxPoint x="1390" y="1875" as="sourcePoint" />
            <mxPoint x="1430" y="1875" as="targetPoint" />
          </mxGeometry>
        </mxCell>
        <mxCell id="89SsRkWXvjaT30RCw-r3-242" value="เท็จ" style="endArrow=classic;html=1;exitX=0.5;exitY=1;" edge="1" parent="1" source="89SsRkWXvjaT30RCw-r3-230" target="89SsRkWXvjaT30RCw-r3-232">
          <mxGeometry width="50" height="50" relative="1" as="geometry">
            <mxPoint x="1340" y="1910" as="sourcePoint" />
            <mxPoint x="1340" y="1940" as="targetPoint" />
          </mxGeometry>
        </mxCell>
        <mxCell id="89SsRkWXvjaT30RCw-r3-243" value="" style="endArrow=classic;html=1;" edge="1" parent="1" source="89SsRkWXvjaT30RCw-r3-232" target="89SsRkWXvjaT30RCw-r3-233">
          <mxGeometry width="50" height="50" relative="1" as="geometry">
            <mxPoint x="1340" y="1980" as="sourcePoint" />
            <mxPoint x="1340" y="2010" as="targetPoint" />
          </mxGeometry>
        </mxCell>
        <mxCell id="89SsRkWXvjaT30RCw-r3-244" value="" style="endArrow=classic;html=1;" edge="1" parent="1" source="89SsRkWXvjaT30RCw-r3-233" target="89SsRkWXvjaT30RCw-r3-234">
          <mxGeometry width="50" height="50" relative="1" as="geometry">
            <mxPoint x="1340" y="2050" as="sourcePoint" />
            <mxPoint x="1340" y="2080" as="targetPoint" />
          </mxGeometry>
        </mxCell>
        <mxCell id="89SsRkWXvjaT30RCw-r3-245" value="จริง (i &lt; count)" style="endArrow=classic;html=1;exitX=1;exitY=0.5;exitDx=0;exitDy=0;" edge="1" parent="1" source="89SsRkWXvjaT30RCw-r3-234" target="89SsRkWXvjaT30RCw-r3-235">
          <mxGeometry width="50" height="50" relative="1" as="geometry">
            <mxPoint x="1290" y="2115" as="sourcePoint" />
            <mxPoint x="1245" y="2180" as="targetPoint" />
            <Array as="points">
              <mxPoint x="1460" y="2115" />
            </Array>
          </mxGeometry>
        </mxCell>
        <mxCell id="89SsRkWXvjaT30RCw-r3-246" value="" style="endArrow=classic;html=1;" edge="1" parent="1" source="89SsRkWXvjaT30RCw-r3-235" target="89SsRkWXvjaT30RCw-r3-236">
          <mxGeometry width="50" height="50" relative="1" as="geometry">
            <mxPoint x="1245" y="2230" as="sourcePoint" />
            <mxPoint x="1245" y="2260" as="targetPoint" />
          </mxGeometry>
        </mxCell>
        <mxCell id="89SsRkWXvjaT30RCw-r3-247" value="" style="endArrow=classic;html=1;exitX=0.5;exitY=0;" edge="1" parent="1" source="89SsRkWXvjaT30RCw-r3-236" target="89SsRkWXvjaT30RCw-r3-234">
          <mxGeometry width="50" height="50" relative="1" as="geometry">
            <mxPoint x="1245" y="2260" as="sourcePoint" />
            <mxPoint x="1340" y="2115" as="targetPoint" />
            <Array as="points">
              <mxPoint x="1245" y="2115" />
            </Array>
          </mxGeometry>
        </mxCell>
        <mxCell id="89SsRkWXvjaT30RCw-r3-257" value="" style="edgeStyle=orthogonalEdgeStyle;rounded=0;orthogonalLoop=1;jettySize=auto;html=1;" edge="1" parent="1" source="89SsRkWXvjaT30RCw-r3-250" target="89SsRkWXvjaT30RCw-r3-143">
          <mxGeometry relative="1" as="geometry" />
        </mxCell>
        <mxCell id="89SsRkWXvjaT30RCw-r3-250" value="" style="ellipse;whiteSpace=wrap;html=1;aspect=fixed;" vertex="1" parent="1">
          <mxGeometry x="815" y="1540" width="30" height="30" as="geometry" />
        </mxCell>
        <mxCell id="89SsRkWXvjaT30RCw-r3-261" style="edgeStyle=orthogonalEdgeStyle;rounded=0;orthogonalLoop=1;jettySize=auto;html=1;entryX=0.5;entryY=0;entryDx=0;entryDy=0;" edge="1" parent="1" source="89SsRkWXvjaT30RCw-r3-252" target="89SsRkWXvjaT30RCw-r3-250">
          <mxGeometry relative="1" as="geometry" />
        </mxCell>
        <mxCell id="89SsRkWXvjaT30RCw-r3-252" value="Function: displayBooks" style="shape=parallelogram;perimeter=parallelogramPerimeter;whiteSpace=wrap;html=1;" vertex="1" parent="1">
          <mxGeometry x="770" y="1350" width="120" height="60" as="geometry" />
        </mxCell>
        <mxCell id="89SsRkWXvjaT30RCw-r3-259" style="edgeStyle=orthogonalEdgeStyle;rounded=0;orthogonalLoop=1;jettySize=auto;html=1;entryX=0;entryY=0;entryDx=0;entryDy=0;" edge="1" parent="1" source="89SsRkWXvjaT30RCw-r3-253" target="89SsRkWXvjaT30RCw-r3-250">
          <mxGeometry relative="1" as="geometry">
            <Array as="points">
              <mxPoint x="643" y="1544" />
            </Array>
          </mxGeometry>
        </mxCell>
        <mxCell id="89SsRkWXvjaT30RCw-r3-253" value="Function: searchBook" style="shape=parallelogram;perimeter=parallelogramPerimeter;whiteSpace=wrap;html=1;" vertex="1" parent="1">
          <mxGeometry x="580" y="1470" width="120" height="60" as="geometry" />
        </mxCell>
        <mxCell id="89SsRkWXvjaT30RCw-r3-260" style="edgeStyle=orthogonalEdgeStyle;rounded=0;orthogonalLoop=1;jettySize=auto;html=1;entryX=0;entryY=0.5;entryDx=0;entryDy=0;" edge="1" parent="1" source="89SsRkWXvjaT30RCw-r3-254" target="89SsRkWXvjaT30RCw-r3-250">
          <mxGeometry relative="1" as="geometry">
            <Array as="points">
              <mxPoint x="500" y="1555" />
            </Array>
          </mxGeometry>
        </mxCell>
        <mxCell id="89SsRkWXvjaT30RCw-r3-254" value="Function: addBook" style="shape=parallelogram;perimeter=parallelogramPerimeter;whiteSpace=wrap;html=1;" vertex="1" parent="1">
          <mxGeometry x="440" y="1330" width="120" height="60" as="geometry" />
        </mxCell>
        <mxCell id="89SsRkWXvjaT30RCw-r3-258" style="edgeStyle=orthogonalEdgeStyle;rounded=0;orthogonalLoop=1;jettySize=auto;html=1;entryX=0.562;entryY=0.051;entryDx=0;entryDy=0;entryPerimeter=0;" edge="1" parent="1" source="89SsRkWXvjaT30RCw-r3-137" target="89SsRkWXvjaT30RCw-r3-253">
          <mxGeometry relative="1" as="geometry" />
        </mxCell>
        <mxCell id="89SsRkWXvjaT30RCw-r3-270" style="edgeStyle=orthogonalEdgeStyle;rounded=0;orthogonalLoop=1;jettySize=auto;html=1;entryX=0.5;entryY=0;entryDx=0;entryDy=0;" edge="1" parent="1" source="89SsRkWXvjaT30RCw-r3-265" target="89SsRkWXvjaT30RCw-r3-254">
          <mxGeometry relative="1" as="geometry" />
        </mxCell>
        <mxCell id="89SsRkWXvjaT30RCw-r3-271" style="edgeStyle=orthogonalEdgeStyle;rounded=0;orthogonalLoop=1;jettySize=auto;html=1;entryX=0.5;entryY=0;entryDx=0;entryDy=0;" edge="1" parent="1" source="89SsRkWXvjaT30RCw-r3-265" target="89SsRkWXvjaT30RCw-r3-136">
          <mxGeometry relative="1" as="geometry" />
        </mxCell>
        <mxCell id="89SsRkWXvjaT30RCw-r3-294" style="edgeStyle=orthogonalEdgeStyle;rounded=0;orthogonalLoop=1;jettySize=auto;html=1;entryX=0.5;entryY=0;entryDx=0;entryDy=0;" edge="1" parent="1" source="89SsRkWXvjaT30RCw-r3-265" target="89SsRkWXvjaT30RCw-r3-141">
          <mxGeometry relative="1" as="geometry" />
        </mxCell>
        <mxCell id="89SsRkWXvjaT30RCw-r3-295" style="edgeStyle=orthogonalEdgeStyle;rounded=0;orthogonalLoop=1;jettySize=auto;html=1;entryX=0.5;entryY=0;entryDx=0;entryDy=0;" edge="1" parent="1" source="89SsRkWXvjaT30RCw-r3-265" target="89SsRkWXvjaT30RCw-r3-140">
          <mxGeometry relative="1" as="geometry" />
        </mxCell>
        <mxCell id="89SsRkWXvjaT30RCw-r3-296" style="edgeStyle=orthogonalEdgeStyle;rounded=0;orthogonalLoop=1;jettySize=auto;html=1;entryX=0.5;entryY=0;entryDx=0;entryDy=0;" edge="1" parent="1" source="89SsRkWXvjaT30RCw-r3-265" target="89SsRkWXvjaT30RCw-r3-252">
          <mxGeometry relative="1" as="geometry" />
        </mxCell>
        <mxCell id="89SsRkWXvjaT30RCw-r3-265" value="" style="ellipse;whiteSpace=wrap;html=1;aspect=fixed;" vertex="1" parent="1">
          <mxGeometry x="815" y="1240" width="30" height="30" as="geometry" />
        </mxCell>
        <mxCell id="89SsRkWXvjaT30RCw-r3-281" value="" style="edgeStyle=orthogonalEdgeStyle;rounded=0;orthogonalLoop=1;jettySize=auto;html=1;" edge="1" parent="1" source="89SsRkWXvjaT30RCw-r3-277" target="89SsRkWXvjaT30RCw-r3-279">
          <mxGeometry relative="1" as="geometry" />
        </mxCell>
        <mxCell id="89SsRkWXvjaT30RCw-r3-277" value="แสดงเมนูหลัก" style="rounded=0;whiteSpace=wrap;html=1;" vertex="1" parent="1">
          <mxGeometry x="770" y="940" width="120" height="30" as="geometry" />
        </mxCell>
        <mxCell id="89SsRkWXvjaT30RCw-r3-280" value="" style="edgeStyle=orthogonalEdgeStyle;rounded=0;orthogonalLoop=1;jettySize=auto;html=1;" edge="1" parent="1" source="89SsRkWXvjaT30RCw-r3-279" target="89SsRkWXvjaT30RCw-r3-130">
          <mxGeometry relative="1" as="geometry" />
        </mxCell>
        <mxCell id="89SsRkWXvjaT30RCw-r3-279" value="รับค่า option" style="rounded=0;whiteSpace=wrap;html=1;" vertex="1" parent="1">
          <mxGeometry x="770" y="990" width="120" height="30" as="geometry" />
        </mxCell>
        <mxCell id="89SsRkWXvjaT30RCw-r3-283" value="" style="endArrow=classic;html=1;exitX=0;exitY=0.5;" edge="1" parent="1" source="89SsRkWXvjaT30RCw-r3-143" target="89SsRkWXvjaT30RCw-r3-282">
          <mxGeometry x="-0.0147" width="50" height="50" relative="1" as="geometry">
            <mxPoint x="780" y="1645" as="sourcePoint" />
            <mxPoint x="830" y="914" as="targetPoint" />
            <Array as="points">
              <mxPoint x="430" y="1645" />
              <mxPoint x="420" y="905" />
            </Array>
            <mxPoint y="-1" as="offset" />
          </mxGeometry>
        </mxCell>
        <mxCell id="89SsRkWXvjaT30RCw-r3-291" style="edgeStyle=orthogonalEdgeStyle;rounded=0;orthogonalLoop=1;jettySize=auto;html=1;entryX=0.5;entryY=0;entryDx=0;entryDy=0;" edge="1" parent="1" source="89SsRkWXvjaT30RCw-r3-282" target="89SsRkWXvjaT30RCw-r3-277">
          <mxGeometry relative="1" as="geometry" />
        </mxCell>
        <mxCell id="89SsRkWXvjaT30RCw-r3-282" value="" style="ellipse;whiteSpace=wrap;html=1;aspect=fixed;" vertex="1" parent="1">
          <mxGeometry x="815" y="890" width="30" height="30" as="geometry" />
        </mxCell>
        <mxCell id="89SsRkWXvjaT30RCw-r3-299" value="" style="endArrow=classic;html=1;" edge="1" parent="1" source="89SsRkWXvjaT30RCw-r3-184" target="89SsRkWXvjaT30RCw-r3-298">
          <mxGeometry width="50" height="50" relative="1" as="geometry">
            <mxPoint x="540" y="2650" as="sourcePoint" />
            <mxPoint x="540" y="2730" as="targetPoint" />
          </mxGeometry>
        </mxCell>
        <mxCell id="89SsRkWXvjaT30RCw-r3-298" value="" style="ellipse;whiteSpace=wrap;html=1;aspect=fixed;" vertex="1" parent="1">
          <mxGeometry x="525" y="2670" width="30" height="30" as="geometry" />
        </mxCell>
        <mxCell id="89SsRkWXvjaT30RCw-r3-306" value="" style="edgeStyle=orthogonalEdgeStyle;rounded=0;orthogonalLoop=1;jettySize=auto;html=1;" edge="1" parent="1" source="89SsRkWXvjaT30RCw-r3-305" target="89SsRkWXvjaT30RCw-r3-213">
          <mxGeometry relative="1" as="geometry" />
        </mxCell>
        <mxCell id="89SsRkWXvjaT30RCw-r3-305" value="" style="ellipse;whiteSpace=wrap;html=1;aspect=fixed;" vertex="1" parent="1">
          <mxGeometry x="975" y="2320" width="30" height="30" as="geometry" />
        </mxCell>
        <mxCell id="89SsRkWXvjaT30RCw-r3-310" value="" style="ellipse;whiteSpace=wrap;html=1;aspect=fixed;" vertex="1" parent="1">
          <mxGeometry x="1325" y="2430" width="30" height="30" as="geometry" />
        </mxCell>
      </root>
    </mxGraphModel>
  </diagram>
</mxfile>
